<svg xmlns="http://www.w3.org/2000/svg" viewBox="0 0 420.48 292.51"><title>WEb design</title><g id="Layer_2" data-name="Layer 2"><g id="Layer_1-2" data-name="Layer 1"><g id="Web_Design" data-name="Web Design"><path d="M120.61,89.28H10.11A10.11,10.11,0,0,0,0,99.39v183a10.11,10.11,0,0,0,10.11,10.11h110.5a10.11,10.11,0,0,0,10.11-10.11v-183A10.11,10.11,0,0,0,120.61,89.28ZM49.15,104.21a2.68,2.68,0,0,1,2.67-2.68H78.9a2.67,2.67,0,0,1,2.67,2.68v.27a2.67,2.67,0,0,1-2.67,2.67H51.82a2.68,2.68,0,0,1-2.67-2.67ZM65.87,284.48a7,7,0,1,1,7-7A7,7,0,0,1,65.87,284.48Zm55.66-20.31A3.82,3.82,0,0,1,117.7,268H14a3.83,3.83,0,0,1-3.83-3.83v-146A3.83,3.83,0,0,1,14,114.3H117.7a3.82,3.82,0,0,1,3.83,3.83Z"/><path d="M321,274.91H288.41a3.69,3.69,0,0,1-3.69-3.68V263.6a3.69,3.69,0,0,0-3.69-3.69H222.25a3.69,3.69,0,0,0-3.69,3.69v7.63a3.69,3.69,0,0,1-3.69,3.68H182.41a3.69,3.69,0,0,0-3.69,3.69v9.8a3.69,3.69,0,0,0,3.69,3.69H321a3.69,3.69,0,0,0,3.69-3.69v-9.8A3.69,3.69,0,0,0,321,274.91Z"/><path d="M401.33,0H102.1A19.15,19.15,0,0,0,83,19.15v47A1.9,1.9,0,0,0,84.85,68h11a1.9,1.9,0,0,0,1.9-1.89V19.23a4.94,4.94,0,0,1,4.94-4.93H400.23a4.93,4.93,0,0,1,4.93,4.93V202.72H210.73l-.23,0H160.63a4.17,4.17,0,0,0-4.17,4.17v34.07a4.17,4.17,0,0,0,4.17,4.17h240.7A19.15,19.15,0,0,0,420.48,226V19.15A19.15,19.15,0,0,0,401.33,0ZM250.72,229.05a9.17,9.17,0,1,1,9.16-9.17A9.18,9.18,0,0,1,250.72,229.05Z"/></g></g></g></svg>