<svg xmlns="http://www.w3.org/2000/svg" viewBox="0 0 740 435.42"><defs><style>.cls-1{fill:#3f3d56;}.cls-2{fill:#ffb77a;}.cls-3{opacity:0.1;isolation:isolate;}.cls-4{fill:#f2f2f2;}</style></defs><title>Asset 1</title><g id="Layer_2" data-name="Layer 2"><g id="e189b3b9-b88e-4ad6-86fc-a3cf637fca9f"><path class="cls-1" d="M50.41,36.46H677.8V383.94h22.93a17.54,17.54,0,0,0,.66-4.73V23a17.6,17.6,0,0,0-17.6-17.6H423.62V0h-118V5.36H44.41A17.6,17.6,0,0,0,26.81,23V379.21a17.54,17.54,0,0,0,.66,4.73H50.41ZM363.57,13.94a6.44,6.44,0,1,1-6.44,6.44A6.43,6.43,0,0,1,363.57,13.94Z"/><path class="cls-2" d="M50.41,36.46V383.94h0V36.46L490.23,383.94h1.35v-4.41a.88.88,0,0,1,.88-.87h21a.88.88,0,0,1,.88.87v4.41h13.12v-4.41h0a.87.87,0,0,1,.87-.87h21a.87.87,0,0,1,.88.87v4.41h13.12v-4.41a.87.87,0,0,1,.87-.87h21a.87.87,0,0,1,.87.87v4.41h13.12v-4.41a.87.87,0,0,1,.88-.87h21a.87.87,0,0,1,.87.87v4.41H635v-4.41h0a.87.87,0,0,1,.87-.87h21a.87.87,0,0,1,.88.87v4.41h20V36.46Z"/><circle class="cls-2" cx="363.57" cy="20.38" r="6.43"/><path class="cls-2" d="M61.23,379.53a.87.87,0,0,1,.87-.87h21a.87.87,0,0,1,.87.87v4.41H97.09v-4.41h0a.87.87,0,0,1,.88-.87h21a.87.87,0,0,1,.87.87v4.41H133v-4.41a.87.87,0,0,1,.87-.87h21a.87.87,0,0,1,.88.87v4.41h13.12v-4.41a.87.87,0,0,1,.87-.87h21a.87.87,0,0,1,.87.87v4.41h13.12v-4.41a.87.87,0,0,1,.88-.87h21a.87.87,0,0,1,.87.87v4.41h13.12v-4.41a.88.88,0,0,1,.88-.87h21a.88.88,0,0,1,.88.87v4.41h13.12v-4.41a.87.87,0,0,1,.87-.87H441.73a.87.87,0,0,1,.87.87v4.41h13.12v-4.41a.87.87,0,0,1,.88-.87h21a.87.87,0,0,1,.87.87v4.41h11.77L50.41,36.46V383.94H61.23Zm87.34-136.25a60.31,60.31,0,1,1-60.3,60.31A60.31,60.31,0,0,1,148.57,243.28Z"/><path class="cls-3" d="M61.23,379.53a.87.87,0,0,1,.87-.87h21a.87.87,0,0,1,.87.87v4.41H97.09v-4.41h0a.87.87,0,0,1,.88-.87h21a.87.87,0,0,1,.87.87v4.41H133v-4.41a.87.87,0,0,1,.87-.87h21a.87.87,0,0,1,.88.87v4.41h13.12v-4.41a.87.87,0,0,1,.87-.87h21a.87.87,0,0,1,.87.87v4.41h13.12v-4.41a.87.87,0,0,1,.88-.87h21a.87.87,0,0,1,.87.87v4.41h13.12v-4.41a.88.88,0,0,1,.88-.87h21a.88.88,0,0,1,.88.87v4.41h13.12v-4.41a.87.87,0,0,1,.87-.87H441.73a.87.87,0,0,1,.87.87v4.41h13.12v-4.41a.87.87,0,0,1,.88-.87h21a.87.87,0,0,1,.87.87v4.41h11.77L50.41,36.46V383.94H61.23Zm87.34-136.25a60.31,60.31,0,1,1-60.3,60.31A60.31,60.31,0,0,1,148.57,243.28Z"/><circle class="cls-4" cx="148.57" cy="303.59" r="60.31" transform="translate(-171.15 193.98) rotate(-45)"/><path class="cls-1" d="M719,383.94H700.73a17.6,17.6,0,0,1-16.94,12.87H44.41a17.6,17.6,0,0,1-16.94-12.87H21a21,21,0,0,0-21,21v9.5a21,21,0,0,0,21,21H719a21,21,0,0,0,21-21v-9.5A21,21,0,0,0,719,383.94Z"/><path class="cls-1" d="M44.41,396.81H683.79a17.6,17.6,0,0,0,16.94-12.87H677.8v6.44H50.41v-6.44H27.47A17.6,17.6,0,0,0,44.41,396.81Z"/><rect class="cls-1" x="50.41" y="383.94" height="6.43"/><path class="cls-1" d="M657.78,379.53a.87.87,0,0,0-.88-.87h-21a.87.87,0,0,0-.87.87h0v4.41H621.91v-4.41a.87.87,0,0,0-.87-.87h-21a.87.87,0,0,0-.88.87v4.41H586.05v-4.41a.87.87,0,0,0-.87-.87h-21a.87.87,0,0,0-.87.87v4.41H550.19v-4.41a.87.87,0,0,0-.88-.87h-21a.87.87,0,0,0-.87.87h0v4.41H514.33v-4.41a.88.88,0,0,0-.88-.87h-21a.88.88,0,0,0-.88.87v4.41h-1.35l8.14,6.44H677.8v-6.44h-20Z"/><rect class="cls-1" x="50.41" y="390.38" width="447.97"/><path class="cls-1" d="M478.46,383.94v-4.41a.87.87,0,0,0-.87-.87h-21a.87.87,0,0,0-.88.87v4.41H442.6v-4.41a.87.87,0,0,0-.87-.87H277.28a.87.87,0,0,0-.87.87v4.41H263.29v-4.41a.88.88,0,0,0-.88-.87h-21a.88.88,0,0,0-.88.87v4.41H227.42v-4.41a.87.87,0,0,0-.87-.87h-21a.87.87,0,0,0-.88.87v4.41H191.56v-4.41a.87.87,0,0,0-.87-.87h-21a.87.87,0,0,0-.87.87v4.41H155.7v-4.41a.87.87,0,0,0-.88-.87h-21a.87.87,0,0,0-.87.87v4.41H119.83v-4.41a.87.87,0,0,0-.87-.87H98a.87.87,0,0,0-.88.87h0v4.41H84v-4.41a.87.87,0,0,0-.87-.87h-21a.87.87,0,0,0-.87.87v4.41H50.41v6.44h448l-8.14-6.44Z"/></g></g></svg>