<svg xmlns="http://www.w3.org/2000/svg" viewBox="0 0 337.53 292.09"><title>Back-end</title><g id="Layer_2" data-name="Layer 2"><g id="Layer_1-2" data-name="Layer 1"><g id="Back-end"><path d="M238.08,274.91H205.45a3.68,3.68,0,0,1-3.68-3.68V263.6a3.7,3.7,0,0,0-3.69-3.69H139.3a3.69,3.69,0,0,0-3.69,3.69v7.63a3.69,3.69,0,0,1-3.69,3.68H99.45a3.69,3.69,0,0,0-3.68,3.69v9.8a3.69,3.69,0,0,0,3.68,3.69H238.08a3.7,3.7,0,0,0,3.69-3.69v-9.8A3.7,3.7,0,0,0,238.08,274.91Z"/><path d="M318.38,0H19.15A19.15,19.15,0,0,0,0,19.15V226a19.15,19.15,0,0,0,19.15,19.15H318.38A19.15,19.15,0,0,0,337.53,226V19.15A19.15,19.15,0,0,0,318.38,0ZM167.77,229.05a9.17,9.17,0,1,1,9.16-9.17A9.17,9.17,0,0,1,167.77,229.05Zm154.44-26.33H14.81V19.23a4.93,4.93,0,0,1,4.93-4.93H317.28a4.93,4.93,0,0,1,4.93,4.93Z"/><path d="M163,93.38l-10.56,2.83L141.71,90c-1-3.63-1.57-5.88-2.45-9.16h-24.5l.11.18-.59.15h0c-1.11,4.17-1.74,6.51-2.86,10.69l-10.47,6L90.6,95.12,78.66,115.8l.52.52-.42.72c2.5,2.49,4.18,4.17,6.9,6.9v11.28l-6.9,6.9.42.72-.52.52L90.6,164,101,161.27l10.47,6c1.12,4.18,1.75,6.52,2.86,10.69h0l.59.14-.11.19h24.5c.88-3.28,1.48-5.53,2.45-9.16L152.47,163,163,165.78l12.79-22.15-.61-.62.41-.72-7.06-7.07V123.94l7.06-7.07-.41-.72.61-.62ZM127.2,140.61a11,11,0,1,1,11.57-11A11.59,11.59,0,0,1,127.2,140.61Z"/><path d="M258.83,67.08l-8.76-2.33-5.14-8.86c.94-3.53,1.47-5.51,2.41-9h0l-.37-.35.16-.09-.62-.35-17-9.78-.36-.2-5.67,5.68-10.52,0-6.55-6.53L187.68,46.11c.06.25.12.48.19.71l-.61.35c.81,3,1.33,4.95,2.2,8.17l-4.76,8.29-8.17,2.2v.71l-.72.19.05,21.65,8.94,2.38,5.27,9.1c-.81,3.08-1.32,5-2.06,7.76l.36.2,17,9.78.61.35v-.18l.49.15h0l6.61-6.63,10.24,0,6.42,6.4,17.49-10.14c-.06-.21-.11-.41-.17-.6l.61-.36c-.77-2.88-1.3-4.82-2.15-8l4.76-8.28,8-2.15v-.71l.6-.16Zm-32.9,14.73a9.81,9.81,0,0,1-17-9.76,9.81,9.81,0,0,1,17,9.76Z"/></g></g></g></svg>