<svg xmlns="http://www.w3.org/2000/svg" viewBox="0 0 337.53 292.09"><title>Front-end</title><g id="Layer_2" data-name="Layer 2"><g id="Layer_1-2" data-name="Layer 1"><g id="Front-end"><path d="M238.08,274.91H205.45a3.68,3.68,0,0,1-3.68-3.68V263.6a3.7,3.7,0,0,0-3.69-3.69H139.3a3.69,3.69,0,0,0-3.69,3.69v7.63a3.69,3.69,0,0,1-3.69,3.68H99.45a3.69,3.69,0,0,0-3.68,3.69v9.8a3.69,3.69,0,0,0,3.68,3.69H238.08a3.7,3.7,0,0,0,3.69-3.69v-9.8A3.7,3.7,0,0,0,238.08,274.91Z"/><path d="M318.38,0H19.15A19.15,19.15,0,0,0,0,19.15V226a19.15,19.15,0,0,0,19.15,19.15H318.38A19.15,19.15,0,0,0,337.53,226V19.15A19.15,19.15,0,0,0,318.38,0ZM167.77,229.05a9.17,9.17,0,1,1,9.16-9.17A9.17,9.17,0,0,1,167.77,229.05Zm154.44-26.33H14.81V19.23a4.93,4.93,0,0,1,4.93-4.93H317.28a4.93,4.93,0,0,1,4.93,4.93Z"/><rect x="123.86" y="102.77" width="89.8" height="12.11" rx="5" transform="translate(22.38 246.29) rotate(-76.02)"/><polygon points="88.79 101.96 88.79 102.05 88.79 116.26 88.79 116.34 88.89 116.3 147 141.45 147 124.77 106.32 109.47 105.57 109.15 106.32 108.83 147 93.54 147 76.86 88.89 102 88.79 101.96"/><polygon points="190.53 76.86 190.53 93.54 231.21 108.83 231.96 109.15 231.21 109.47 190.53 124.77 190.53 141.45 248.64 116.3 248.75 116.34 248.75 116.26 248.75 102.05 248.75 101.96 248.64 102 190.53 76.86"/></g></g></g></svg>